{"title":"Despicable.Me.2010.DvDRip.H264.Feel-Free","uid":5992495,"size":768468361,"categoryP":"video","categoryS":"movies","magnet":"?xt=urn:btih:3b08cf6d454f025776f6c7fbdf62d48bb7977c97&amp;dn=Despicable.Me.2010.DvDRip.H264.Feel-Free&amp;tr=udp%3A%2F%2Ftracker.openbittorrent.com%3A80&amp;tr=udp%3A%2F%2Fopen.demonii.com%3A1337&amp;tr=udp%3A%2F%2Ftracker.coppersurfer.tk%3A6969&amp;tr=udp%3A%2F%2Fexodus.desync.com%3A6969","seeders":0,"leechers":1,"uploader":"hiest","files":9,"time":1290938348,"description":"Genre:Animation | Comedy | Family\nLanguage:English\nIMDb:http://www.imdb.com/title/tt1323594/\nSource: NTSC DVDR\n\n\nGeneral\nComplete name :Despicable.Me.2010.DvDRip.H264.Feel-Free\nFormat : MPEG-4\nFormat profile : Base Media\nCodec ID : mp42\nFile size : 730 MiB\nDuration : 1h 30mn\nOverall bit rate : 1 123 Kbps\nVideo #1\nCodec ID : avc1\nCodec ID/Info : Advanced Video Coding\nDuration : 1h 30mn\nBit rate mode : Variable\nBit rate : 738 Kbps\nWidth : 720 pixels\nHeight : 384 pixels\nDisplay aspect ratio : 1.875\nFrame rate mode : Constant\nFrame rate : 23.976 fps\nResolution : 24 bits\nColorimetry : 4:2:0\nScan type : Progressive\nBits/(Pixel*Frame) : 0.111\nStream size : 479 MiB (66%)\nAudio #2\nID : 2\nFormat : AAC\nFormat/Info : Advanced Audio Codec\nFormat version : Version 4\nFormat profile : LC\nFormat settings, SBR : No\nCodec ID : 40\nDuration : 1h 30mn\nBit rate mode : Constant\nBit rate : 384 Kbps\nChannel(s) : 6 channels\nChannel positions : Front: L C R, Rear: L R, LFE\nSampling rate : 48.0 KHz\nResolution : 16 bits\nStream size : 248 MiB (34%)\n\nPlot:\nA trio of orphan girls cause the normally deplorable Gru to rethink his plan to steal the moon\n\n\n\n================================== &lt;a href=&quot;\nhttp://thepiratebay.se/user/hiest&quot; rel=&quot;nofollow&quot; target=&quot;_NEW&quot;&gt;\nhttp://thepiratebay.se/user/hiest&lt;/a&gt;\n==================================\n\n\nScreenshots:\n &lt;a href=&quot;\nhttp://rapidhdd.com/images/227210vlcsnap-2010-11-28-10h47m36s244.png&quot; rel=&quot;nofollow&quot; target=&quot;_NEW&quot;&gt;\nhttp://rapidhdd.com/images/227210vlcsnap-2010-11-28-10h47m36s244.png&lt;/a&gt;\n &lt;a href=&quot;\nhttp://www.rapidhdd.com/images/341627vlcsnap-2010-11-28-10h47m40s34.png&quot; rel=&quot;nofollow&quot; target=&quot;_NEW&quot;&gt;\nhttp://www.rapidhdd.com/images/341627vlcsnap-2010-11-28-10h47m40s34.png&lt;/a&gt;\n &lt;a href=&quot;\nhttp://www.rapidhdd.com/images/255336vlcsnap-2010-11-28-10h48m03s253.png&quot; rel=&quot;nofollow&quot; target=&quot;_NEW&quot;&gt;\nhttp://www.rapidhdd.com/images/255336vlcsnap-2010-11-28-10h48m03s253.png&lt;/a&gt;\n &lt;a href=&quot;\nhttp://www.rapidhdd.com/images/45773vlcsnap-2010-11-28-10h49m20s12.png&quot; rel=&quot;nofollow&quot; target=&quot;_NEW&quot;&gt;\nhttp://www.rapidhdd.com/images/45773vlcsnap-2010-11-28-10h49m20s12.png&lt;/a&gt;\n &lt;a href=&quot;\nhttp://www.rapidhdd.com/images/887020vlcsnap-2010-11-28-10h49m30s110.png&quot; rel=&quot;nofollow&quot; target=&quot;_NEW&quot;&gt;\nhttp://www.rapidhdd.com/images/887020vlcsnap-2010-11-28-10h49m30s110.png&lt;/a&gt;\n &lt;a href=&quot;\nhttp://www.rapidhdd.com/images/2149vlcsnap-2010-11-28-10h49m36s171.png&quot; rel=&quot;nofollow&quot; target=&quot;_NEW&quot;&gt;\nhttp://www.rapidhdd.com/images/2149vlcsnap-2010-11-28-10h49m36s171.png&lt;/a&gt;","torrent":{"xt":"urn:btih:3b08cf6d454f025776f6c7fbdf62d48bb7977c97","amp;dn":"Despicable.Me.2010.DvDRip.H264.Feel-Free","amp;tr":["udp%3A%2F%2Ftracker.openbittorrent.com%3A80","udp%3A%2F%2Fopen.demonii.com%3A1337","udp%3A%2F%2Ftracker.coppersurfer.tk%3A6969","udp%3A%2F%2Fexodus.desync.com%3A6969"],"infoHash":"3b08cf6d454f025776f6c7fbdf62d48bb7977c97","infoHashBuffer":{"type":"Buffer","data":[59,8,207,109,69,79,2,87,118,246,199,251,223,98,212,139,183,151,124,151]},"announce":[],"urlList":[]}}